<?xml version="1.0" encoding="UTF-8" standalone="no"?>
<!DOCTYPE svg PUBLIC "-//W3C//DTD SVG 1.1//EN" "http://www.w3.org/Graphics/SVG/1.1/DTD/svg11.dtd">
<svg width="100%" height="100%" viewBox="0 0 500 500" version="1.1" xmlns="http://www.w3.org/2000/svg" xmlns:xlink="http://www.w3.org/1999/xlink" xml:space="preserve" xmlns:serif="http://www.serif.com/" style="fill-rule:evenodd;clip-rule:evenodd;stroke-linejoin:round;stroke-miterlimit:2;">
    <g transform="matrix(0.856456,0,0,0.856456,35.8861,35.9288)">
        <path d="M449.887,0.74L499.858,50.651L399.914,150.475L349.944,100.564L449.887,0.74M0.144,50.651L50.117,0.74L150.058,100.564L100.087,150.475L0.144,50.651M299.974,250.299C299.974,264.424 294.976,276.079 284.982,285.235C275.811,295.218 264.143,300.209 250.001,300.209C235.834,300.209 223.767,295.218 213.773,285.235C204.602,276.079 200.03,264.424 200.03,250.299C200.03,236.148 204.602,224.095 213.773,214.113C223.767,204.954 235.834,200.387 250.001,200.387C264.143,200.387 275.811,204.954 284.982,214.113C294.976,224.095 299.974,236.148 299.974,250.299M50.117,499.857L0.144,449.946L100.087,350.122L150.058,400.034L50.117,499.857M499.858,449.946L449.887,499.857L349.944,400.034L399.914,350.122L499.858,449.946" style="fill:white;fill-rule:nonzero;stroke:black;stroke-width:24.11px;"/>
    </g>
</svg>
